<svg width="27" height="24" viewBox="0 0 27 24" fill="none" xmlns="http://www.w3.org/2000/svg">
<g clip-path="url(#clip0_340_97)">
<path d="M18.8719 3.89995L23.1 8.12808C23.2781 8.3062 23.2781 8.59683 23.1 8.77495L12.8625 19.0125L8.5125 19.4953C7.93125 19.5609 7.43906 19.0687 7.50469 18.4875L7.9875 14.1375L18.225 3.89995C18.4031 3.72183 18.6938 3.72183 18.8719 3.89995ZM26.4656 2.82651L24.1781 0.539014C23.4656 -0.173486 22.3078 -0.173486 21.5906 0.539014L19.9313 2.19839C19.7531 2.37651 19.7531 2.66714 19.9313 2.84526L24.1594 7.07339C24.3375 7.25151 24.6281 7.25151 24.8063 7.07339L26.4656 5.41401C27.1781 4.69683 27.1781 3.53901 26.4656 2.82651ZM18 16.2281V21H3V5.99995H13.7719C13.9219 5.99995 14.0625 5.93901 14.1703 5.83589L16.0453 3.96089C16.4016 3.60464 16.1484 2.99995 15.6469 2.99995H2.25C1.00781 2.99995 0 4.00776 0 5.24995V21.75C0 22.9921 1.00781 24 2.25 24H18.75C19.9922 24 21 22.9921 21 21.75V14.3531C21 13.8515 20.3953 13.6031 20.0391 13.9546L18.1641 15.8296C18.0609 15.9375 18 16.0781 18 16.2281Z" fill="white"/>
</g>
<defs>
<clipPath id="clip0_340_97">
<rect width="27" height="24" fill="white"/>
</clipPath>
</defs>
</svg>
