<svg width="34" height="44" viewBox="0 0 34 44" fill="none" xmlns="http://www.w3.org/2000/svg">
<path d="M33.1133 19.168C33.1133 18.9531 32.9375 18.7773 32.7227 18.7773H29.793C29.5781 18.7773 29.4023 18.9531 29.4023 19.168C29.4023 26.0186 23.8506 31.5703 17 31.5703C10.1494 31.5703 4.59766 26.0186 4.59766 19.168C4.59766 18.9531 4.42188 18.7773 4.20703 18.7773H1.27734C1.0625 18.7773 0.886719 18.9531 0.886719 19.168C0.886719 27.4053 7.06836 34.2021 15.0469 35.1641V40.1641H7.95215C7.2832 40.1641 6.74609 40.8623 6.74609 41.7266V43.4844C6.74609 43.6992 6.88281 43.875 7.04883 43.875H26.9512C27.1172 43.875 27.2539 43.6992 27.2539 43.4844V41.7266C27.2539 40.8623 26.7168 40.1641 26.0479 40.1641H18.7578V35.1885C26.8291 34.3096 33.1133 27.4736 33.1133 19.168ZM17 27.4688C21.585 27.4688 25.3008 23.7969 25.3008 19.2656V8.32812C25.3008 3.79688 21.585 0.125 17 0.125C12.415 0.125 8.69922 3.79688 8.69922 8.32812V19.2656C8.69922 23.7969 12.415 27.4688 17 27.4688ZM12.4102 8.32812C12.4102 5.85742 14.4561 3.83594 17 3.83594C19.5439 3.83594 21.5898 5.85742 21.5898 8.32812V19.2656C21.5898 21.7363 19.5439 23.7578 17 23.7578C14.4561 23.7578 12.4102 21.7363 12.4102 19.2656V8.32812Z" fill="#086788"/>
</svg>
