<svg width="46" height="34" viewBox="0 0 46 34" fill="none" xmlns="http://www.w3.org/2000/svg">
<path d="M11.5417 33.6667C8.375 33.6667 5.67361 32.5764 3.4375 30.3959C1.20139 28.2014 0.083333 25.5278 0.083333 22.375C0.083333 19.6667 0.895833 17.25 2.52083 15.125C4.15972 13 6.29861 11.6459 8.9375 11.0625C9.8125 7.8681 11.5486 5.28476 14.1458 3.31254C16.7569 1.32643 19.7083 0.333374 23 0.333374C27.0694 0.333374 30.5139 1.75004 33.3333 4.58337C36.1667 7.40282 37.5833 10.8473 37.5833 14.9167C39.9861 15.1945 41.9722 16.2362 43.5417 18.0417C45.125 19.8195 45.9167 21.9028 45.9167 24.2917C45.9167 26.9028 45.0069 29.1181 43.1875 30.9375C41.3681 32.757 39.1528 33.6667 36.5417 33.6667H25.0833C23.9444 33.6667 22.9653 33.257 22.1458 32.4375C21.3264 31.632 20.9167 30.6528 20.9167 29.5V18.7709L17.5833 22L14.6667 19.0834L23 10.75L31.3333 19.0834L28.4167 22L25.0833 18.7709V29.5H36.5417C38 29.5 39.2292 28.9931 40.2292 27.9792C41.2431 26.9792 41.75 25.75 41.75 24.2917C41.75 22.8334 41.2431 21.6042 40.2292 20.6042C39.2292 19.5903 38 19.0834 36.5417 19.0834H33.4167V14.9167C33.4167 12.0417 32.4028 9.58337 30.375 7.54171C28.3472 5.51393 25.8889 4.50004 23 4.50004C20.125 4.50004 17.6667 5.51393 15.625 7.54171C13.5972 9.58337 12.5833 12.0417 12.5833 14.9167H11.5417C9.52778 14.9167 7.8125 15.632 6.39583 17.0625C4.96528 18.4792 4.25 20.1945 4.25 22.2084C4.25 24.2223 4.96528 25.9584 6.39583 27.4167C7.8125 28.8056 9.52778 29.5 11.5417 29.5H16.75V33.6667" fill="#086788"/>
</svg>
